<svg viewBox="0 0 64 64" xmlns="http://www.w3.org/2000/svg" role="img" aria-label="แกะออกจากแม่พิมพ์และตกแต่ง">
  <path d="M33 4c14 1 26 10 28 24 2 14-7 28-21 32-14 4-29-3-34-16C1 31 6 16 18 9c5-3 10-5 15-5z" fill="#D9E4CD"/>
  <rect x="20" y="26" width="24" height="24" rx="3" fill="#4C6B4F"/>
  <path d="M32 26v-8" stroke="#2B2620" stroke-width="2" stroke-linecap="round"/>
  <path d="M32 18c3 2 3 5 0 7-3-2-3-5 0-7z" fill="#D2A24C"/>
  <path d="M22 30c6 2 14 2 20 0" stroke="#8AA37A" stroke-width="2" fill="none"/>
</svg>
