<svg viewBox="0 0 64 64" xmlns="http://www.w3.org/2000/svg" role="img" aria-label="สับและเตรียมสมุนไพร">
  <path d="M33 4c14 1 26 10 28 24 2 14-7 28-21 32-14 4-29-3-34-16C1 31 6 16 18 9c5-3 10-5 15-5z" fill="#D9E4CD"/>
  <path d="M16 44c8 4 26 4 34-2" fill="none" stroke="#A9713F" stroke-width="4" stroke-linecap="round"/>
  <ellipse cx="24" cy="40" rx="16" ry="7" fill="#2F4A34"/>
  <path d="M20 38c2-6 8-9 12-9" fill="none" stroke="#8AA37A" stroke-width="3" stroke-linecap="round"/>
  <path d="M27 39c3-7 9-11 13-11" fill="none" stroke="#8AA37A" stroke-width="3" stroke-linecap="round"/>
</svg>
